<svg version="1.1" width="80" height="60" xmlns="http://www.w3.org/2000/svg">
  <path d="M0,29 L30,29 L30,21 L50,30 L50,21 L52,21 L52,29 L80,29 L80,31 L52,31 L52,39 L50,39 L50,30 L30,39 L30,31 L0,31 Z"></path>
  <path d="M45.171 6.47L44.829 5.53L50.462 3.479L49.783 1.599L54.707 2.467L51.493 6.297L50.802 4.177L45.171 6.47M51.171 11.47L50.829 10.53L56.462 8.479L55.783 6.599L60.707 7.467L57.493 11.297L56.802 9.177L51.171 11.47"></path>
  <path fill-rule="evenodd" d="M60,30 A20 20 0 0 1 40 50 A20 20 90 0 1 20 30 A20 20 180 0 1 40 10 A20 20 270 0 1 60 30 M58,30 A18 18 0 0 1 40 48A 18 18 90 0 1 22 30 A18 18 180 0 1 40 12 A18 18 270 0 1 58 30"></path>
</svg>
