<svg version="1.1" width="80" height="60" xmlns="http://www.w3.org/2000/svg">
  <path d="M0,29 L30,29 L30,21 L50,30 L50,21 L52,21 L52,29 L80,29 L80,31 L52,31 L52,39 L50,39 L50,30 L30,39 L30,31 L0,31 Z"></path>
  <path d="M34.829 53.53L35.171 54.47L29.538 56.521L30.217 58.401L25.293 57.533L28.507 53.703L29.198 55.823L34.829 53.53M28.829 48.53L29.171 49.47L23.538 51.521L24.217 53.401L19.293 52.533L22.507 48.703L23.198 50.823L28.829 48.53"></path>
  <path fill-rule="evenodd" d="M60,30 A20 20 0 0 1 40 50 A20 20 90 0 1 20 30 A20 20 180 0 1 40 10 A20 20 270 0 1 60 30 M58,30 A18 18 0 0 1 40 48A 18 18 90 0 1 22 30 A18 18 180 0 1 40 12 A18 18 270 0 1 58 30"></path>
</svg>
