<svg version="1.1" width="60" height="60" xmlns="http://www.w3.org/2000/svg">
  <path d="M0,29 L30,29 L30,18 L32,18 L32,42 L30,42 L30,31 0,31 Z"></path>
  <path d="M32,24 L49,16 L49,0 L51,0 L51,17 L32,26 Z"></path>
  <path d="M32,34 L51,43 L51,60 L49,60 L49,44 L32,36 Z"></path>
  <path d="M46,41.6 L37.058,41.813 L40.465,34.574 Z"></path>
  <path fill-rule="evenodd" d="M60,30 A20 20 0 0 1 40 50 A20 20 90 0 1 20 30 A20 20 180 0 1 40 10 A20 20 270 0 1 60 30 M58,30 A18 18 0 0 1 40 48A 18 18 90 0 1 22 30 A18 18 180 0 1 40 12 A18 18 270 0 1 58 30"></path>
</svg>
