<svg version="1.1" width="60" height="60" xmlns="http://www.w3.org/2000/svg">
  <path d="M60,29 L30,29 L30,18 L28,18 L28,42 L30,42 L30,31 L60,31 Z"></path>
  <path d="M28,24 L11,16 L11,0 L9,0 L9,17 L28,26 Z"></path>
  <path d="M28,34 L9,43 L9,60 L11,60 L11,44 L28,36 Z"></path>
  <path d="M20,21.3 L14.465,14.274 L11.058,21.513 Z"></path>
  <path fill-rule="evenodd" d="M40 30A20 20 0 0 1 20 50A20 20 90 0 1 0 30A20 20 180 0 1 20 10A20 20 270 0 1 40 30M38 30A18 18 0 0 1 20 48A18 18 90 0 1 2 30A18 18 180 0 1 20 12A18 18 270 0 1 38 30"></path>
</svg>
